<svg id="Calque_1" xmlns="http://www.w3.org/2000/svg" viewBox="0 0 144.22 98.32"><defs><style>.cls-1,.cls-3{fill:#1a171b}.cls-2{fill:#fff}.cls-3,.cls-5{stroke:#fff;stroke-miterlimit:10}.cls-5{stroke:#1a171b;fill:none;stroke-width:3px}</style></defs><path class="cls-1" d="M23.65 42.28L61.3 69.87l-1.58 3.1-37.64-27.59 1.57-3.1z"/><path class="cls-1" d="M36.48 68.88l11.24-22.11s1-2.67-3.35-.76-11.18 14.5-10.09 19.85 1.46 4.47 2.2 3.02zM53.35 80.33l9.31-23.48s.79-2.81-3.29-.57S49.58 71.91 51 77.34s1.74 4.52 2.35 2.99zM62.35 81.34l5.85-15.29s.44-1.87-2.68-.73-6.78 9.82-5.25 13.68 1.73 3.34 2.08 2.34zM41.94 80.83l16.48-32.4s1.61-3.81-3.4 0-14.84 22.38-14.78 29.08.62 5.49 1.7 3.32zM37 46.2l4.73-9.3s1-2.92-3.49-4-23.35-4.06-26 2.8S25.08 69.61 27.93 64z" transform="translate(-11.93 -6.66)"/><ellipse class="cls-2" cx="29.96" cy="37.21" rx="1.38" ry="2.35" transform="rotate(-48.67 16.64 47.06)"/><path class="cls-1" d="M68.94 76.94s16.78-12.31 26.19 1.57-26.19-1.57-26.19-1.57z" transform="translate(-11.93 -6.66)"/><path class="cls-1" d="M69.62 74.26s27.06 21.75 17.52 27-17.52-27-17.52-27zM111.53 22.2s4.86-5.63 14.37-.92A20 20 0 0 1 137.25 37s.43 2.7-3.33 10c-4.11 8-23 25.83-38.72 34.79 0 0-5.24 4.43-9 .63 0 0-2.58-3.74-.36-9.93-.04.03 14.94-39.49 25.69-50.29zM139.3 31.7s1.54-1.3 5 .89c0 0 3.39 2.39 4-.39 0 0 1.44-2.84-2.44-4.71a5.11 5.11 0 0 0-5.31.69 6.23 6.23 0 0 0-1.25 3.52zM133.78 24.14s8.09-9.23 16.28-6.09a4.38 4.38 0 0 0 5.54-3.54s2.6-5.49-3.48-6.75c0 0-8.23-2.28-14.92 6.66 0 0-5.58 8.35-3.42 9.72zM127.43 18.45s-3-2.67 3.3-6.57c0 0 4.33-2.44.49-5 0 0-3.92-1.31-6.16 3.15 0 0-2.22 4.73-.46 6.71 0-.04.19.7 2.83 1.71z" transform="translate(-11.93 -6.66)"/><path class="cls-3" d="M98.4 25.2l7.9 6.53M93.78 33.99l10.28 8.51M89.63 43.7l5.14 4.26M87.55 57.44l-3.01-2.94"/><path class="cls-2" d="M117.73 69.57s-10.13-9.38-6.31 4.2c0 0-10.08-8.41-6.63 4.4zM134.76 43.79c-7.31-1.81-9.76 9.12-3.93 8.77l6.17-9.15zM100.51 36.15s6.46 1.48 2.28-3.81c0 0 6.27 1 2.39-4z" transform="translate(-11.93 -6.66)"/><circle cx="65.65" cy="71.29" r="24.53" stroke-width="5" stroke="#1a171b" stroke-miterlimit="10" fill="#fff"/><ellipse class="cls-1" cx="88.39" cy="71.19" rx="3.29" ry="1.59"/><ellipse class="cls-1" cx="42.86" cy="71.19" rx="3.29" ry="1.59"/><ellipse class="cls-1" cx="65.65" cy="94.24" rx="1.59" ry="3.29"/><ellipse class="cls-1" cx="65.65" cy="48.44" rx="1.59" ry="3.29"/><circle class="cls-1" cx="65.34" cy="71.19" r="1.97"/><path class="cls-5" d="M59.49 66l6.16 5.29M77.09 55.2L65.65 71.19"/></svg>