<svg xmlns="http://www.w3.org/2000/svg" viewBox="0 0 1152 1152">
    <path d="M935.6 185c-16.4 2.9-28.8 15.7-36 37.3-7.3 22-5.8 37.5 4.4 46.1 3.3 2.7 15.9 9.1 16.6 8.4.2-.3-.3-2-1.2-3.8-2.7-5.4-2.8-10.8-.3-17.5 1.7-4.8 3.8-7.6 10.3-14.1 4.5-4.4 12.2-10.8 17.2-14.2 18.7-12.5 23.3-22.8 14.9-33.8-5.7-7.5-14.6-10.3-25.9-8.4zM1081.3 192.4c-28 5.3-53.9 21.5-74.6 46.4-11.7 14-29.7 46.7-34.6 62.6-2.4 7.9-2.8 17.3-.7 20.2 1.4 1.8 1.7 1.7 6.8-3.2 25.6-24.4 49.1-38.9 74.2-45.6 6.5-1.8 10.9-2.2 22.6-2.2 13.2-.1 15.3.2 23.9 2.8 7.6 2.3 10.7 2.7 15.7 2.3 11.2-.9 23.3-8.5 28.9-18.1 3.2-5.7 8.5-24.8 8.5-31.1 0-15.6-9-26.5-26.6-32.1-6.6-2.1-10.4-2.6-22.4-3-9.6-.2-16.9.1-21.7 1zM836 287.4c-13.3 2.9-25.8 8.5-34.1 15.4-10.5 8.7-27.4 29.4-42.8 52.5l-7.2 10.7 1.6 4.6c3.3 9.8.3 16.5-8.1 17.9-2.1.3-4.8.8-5.9 1-1.1.2-3.1 2.4-4.4 4.8l-2.3 4.3 2.1 4.2c2.2 4.4 2.7 10.1 1.1 13.1-1.2 2.3-5.3 4-11.6 4.9l-4.8.7-16.3 32c-16.5 32.6-35 71.5-48.9 103-4.3 9.6-8.1 17.5-8.6 17.5-.4 0-3.6-1.8-7-4.1-9-5.9-30.6-16.2-42.4-20.2-39-13.5-81-15.7-120.9-6.5-21.4 4.9-48.7 16.5-66.5 28.2-8.4 5.5-8.6 5.6-16.1 5.6-6.8 0-8.1.3-13.5 3.6-3.2 1.9-7.4 5-9.3 6.7-5.5 5.3-17.2 21.6-23.6 33-3.3 5.9-6.4 10.7-6.8 10.7-.4 0-4.8-3-9.8-6.6l-9-6.6 17.5-34.1c30.2-59.4 34.5-68.2 35.2-72.5 1.3-8-2.5-9.1-13.2-3.8-19.4 9.7-41.8 35.1-64.6 73.3-4 6.7-7.6 12.2-8 12.3-1.1 0-33.9-24.3-33.6-24.9.2-.3 7.6-15.1 16.6-32.8 16.9-33.6 18.2-37.2 14.4-40.6-4.1-3.7-19.8-.2-31 6.9-7.7 4.9-19.3 16.9-28.7 29.8-5.1 6.9-8.2 10.3-8.9 9.8-.6-.5-6.9-5-13.9-10.2-7-5.1-12.6-9.5-12.5-9.9.9-1.9 21.1-41.7 33.9-66.7 14-27.4 14.9-29.4 14.9-34.8 0-6.8-2.3-11.9-7.5-16.4-7.8-6.9-17.8-9.9-49.5-15.1-56.5-9.1-108.9-9.3-140-.5-18.9 5.4-31.3 14.1-37.2 26.2-3.2 6.5-3.3 7-3.2 18.7.1 14.9 2.6 27.1 9.9 49.1 21.1 62.9 68.9 142.8 96.5 161.3 7.1 4.7 11.8 5.8 15.8 3.7 3.1-1.6 4.3-3.9 40-73.6 7.2-14 13.5-25.5 14.1-25.5.5 0 6.6 4.1 13.5 9.2l12.5 9.2-5.8 12.3c-17.6 37.3-22.4 62.4-16.7 87.6 4.8 20.6 7.7 26.1 11.6 21.4 1-1.2 12.1-22.4 24.5-47 12.5-24.6 23.1-45.1 23.5-45.6.8-.8 33 21.8 33 23.2 0 .3-3.9 8.4-8.6 18-19.8 40.2-32.5 74.4-36.9 99.3-2.4 13.7-1.4 47.6 1.7 53.2 1 1.9 1.1 1.9 3.3-.4 1.3-1.3 18.4-34.1 38.1-72.9 19.6-38.8 36-70.9 36.5-71.4.4-.5 5.1 2.2 10.3 6 11.2 8 10.8 6.1 4.7 23.8-25.9 74.7-15.1 149.7 30.3 210.4 30.9 41.4 78.7 71.1 130.6 81.1 111.7 21.7 220.9-47.2 249.5-157.4 1.9-7.2 4.1-18.2 5.1-24.5 2.3-15.6 2.2-43.6-.1-59.7l-1.8-12.2 2.4-4.8c3.5-6.9 8-9 16.6-7.6 3.5.6 9.9 2.8 14.2 4.8l7.8 3.7 6.2-4.7c5.4-4.3 6-5.1 5.4-7.4-.4-1.4-.7-7.3-.8-13.1 0-11.1 1-14.4 5.5-18.5 3.8-3.4 11.9-2.7 21.7 1.9l8.2 3.9 5.6-4.7c27-23.1 68.1-62.7 89.4-86.1 15.1-16.6 24.1-27 24.1-27.8 0-.3-1.3-.8-2.9-1.2-4.9-1.1-10.7-5.9-13.2-11.2-3.4-6.8-3.4-19.1 0-28.5 3.4-9.4 10.8-19 18.3-23.8 8.7-5.7 12.3-6.5 27.8-6.5h13.5l2.2-4.5c5.7-11.5 12.3-35.9 12.3-45.5 0-12.4-5.9-33.9-14-51.2-20.9-44.4-60.3-76.8-108.6-89.3-10.4-2.7-33.1-3.5-42.4-1.6zm-15 121.2l30.9 25.6-2.2 2.9c-1.2 1.5-2.7 2.6-3.4 2.4-1-.3-56.7-45.9-61.2-50.1-1.3-1.2-1.2-1.7.9-3.9 1.3-1.4 2.7-2.5 3.2-2.5.4 0 14.7 11.5 31.8 25.6zm-675.2 7c9.6 4.8 16.6 15.6 14.4 22.2-2.6 8-16.4 5.6-25.2-4.4-6.3-7.2-7.6-13.9-3.5-17.9 3.2-3.3 7.6-3.2 14.3.1zM794 487l40 33.1-2.2 3c-1.2 1.6-2.6 2.8-3.1 2.6-.5-.1-19.1-15.3-41.3-33.7l-40.3-33.3 2.1-2.9c1.1-1.7 2.6-2.7 3.4-2.4.7.3 19.4 15.4 41.4 33.6zm-54.9 59.6c10.9 9.1 19.9 17.1 19.9 17.8 0 .7-1 2.2-2.2 3.3l-2.3 2.1-18-15c-9.9-8.2-19-15.8-20.3-16.8l-2.3-1.9 2.2-3c1.3-1.7 2.5-3.1 2.7-3.1.2 0 9.4 7.5 20.3 16.6zm-225.6 35.1c1.4 7.9 7.2 15.3 11.7 15.3 3.6 0 8.6-6.2 10.5-13l1.7-6.2 7 .7c29.3 2.8 62 15.8 86.6 34.5 37.3 28.4 62.1 70.9 68.1 116.7 1.4 10.2 1 11.2-3.6 11.3-1.1 0-4.4 1.1-7.2 2.5-3.9 1.8-5.7 3.3-7 6-1.6 3.4-1.6 3.6.3 6.2 3.1 4.1 6.4 6.1 12.4 7.7l5.5 1.4-.2 6.9c-.4 16.5-7 39.1-17.3 59.8-20.8 41.7-56 72.7-99.9 87.9-11 3.9-31.2 8.3-39.6 8.8l-4.9.2-2.2-6.3c-5.3-15.5-15.2-15.5-20.8 0l-2.3 6.3-4.9-.2c-14.4-.8-40.4-8-57.7-16.1-22.2-10.3-46.7-29.8-62.9-50.1-19.7-24.9-34.1-60.1-36.4-89.6l-.7-8.1 4.3-.7c8.7-1.4 15-6.3 15-11.7 0-3.8-5.7-8.3-13.2-10.4l-6.1-1.7.7-7c1.6-17.4 7.6-37.8 16.7-56.5 24.9-51.5 73.7-87.8 129.9-96.8 4.7-.7 10.1-1.3 12.1-1.4 3.5-.1 3.7.1 4.4 3.6z"/>
    <path d="M565.8 674.7c-22.4 31.3-41.3 57.6-42.1 58.7-1.2 1.7-2.5.8-19.3-13.5-9.8-8.5-18.6-16-19.5-16.6-1.3-1.1-2.6 0-8.7 7.1-4 4.7-7.2 8.9-7.2 9.5 0 .5 8.2 8 18.3 16.6 10 8.6 18.5 16.2 18.8 16.8.3.7 1.6 3.3 2.9 5.9 1.7 3.6 3.3 5.2 6.4 6.8 9.1 4.4 17.1 1.1 22.1-9.1 1.2-2.6 21.4-31.5 44.8-64.2 23.5-32.8 42.7-60.1 42.7-60.6 0-.8-17.2-14.1-18.3-14.1-.2 0-18.6 25.5-40.9 56.7zM1046 365.6c-12.3 7.9-22.8 14.8-23.2 15.2-.4.4 2.8.7 7 .8 9 .1 14.5 2 27.5 9.4 9.6 5.5 18.2 8.3 22.8 7.3 9.2-1.8 14.1-20 8.5-31.1-3.6-7.1-14.4-16.3-18.8-16.2-.7.1-11.4 6.6-23.8 14.6z"/>
</svg>