<?xml version="1.0" standalone="no"?>
<!DOCTYPE svg PUBLIC "-//W3C//DTD SVG 20010904//EN"
 "http://www.w3.org/TR/2001/REC-SVG-20010904/DTD/svg10.dtd">
<svg version="1.0" xmlns="http://www.w3.org/2000/svg"
 width="1152.000000pt" height="1152.000000pt" viewBox="0 0 1152.000000 1152.000000"
 preserveAspectRatio="xMidYMid meet">
<metadata>
Created by potrace 1.11, written by Peter Selinger 2001-2013
</metadata>
<g transform="translate(0.000000,1152.000000) scale(0.100000,-0.100000)"
fill="#000000" stroke="none">
<path d="M9356 9670 c-164 -29 -288 -157 -360 -373 -73 -220 -58 -375 44 -461
33 -27 159 -91 166 -84 2 3 -3 20 -12 38 -27 54 -28 108 -3 175 17 48 38 76
103 141 45 44 122 108 172 142 187 125 233 228 149 338 -57 75 -146 103 -259
84z"/>
<path d="M10813 9596 c-280 -53 -539 -215 -746 -464 -117 -140 -297 -467 -346
-626 -24 -79 -28 -173 -7 -202 14 -18 17 -17 68 32 256 244 491 389 742 456
65 18 109 22 226 22 132 1 153 -2 239 -28 76 -23 107 -27 157 -23 112 9 233
85 289 181 32 57 85 248 85 311 0 156 -90 265 -266 321 -66 21 -104 26 -224
30 -96 2 -169 -1 -217 -10z"/>
<path d="M8360 8646 c-133 -29 -258 -85 -341 -154 -105 -87 -274 -294 -428
-525 l-72 -107 16 -46 c33 -98 3 -165 -81 -179 -21 -3 -48 -8 -59 -10 -11 -2
-31 -24 -44 -48 l-23 -43 21 -42 c22 -44 27 -101 11 -131 -12 -23 -53 -40
-116 -49 l-48 -7 -163 -320 c-165 -326 -350 -715 -489 -1030 -43 -96 -81 -175
-86 -175 -4 0 -36 18 -70 41 -90 59 -306 162 -424 202 -390 135 -810 157
-1209 65 -214 -49 -487 -165 -665 -282 -84 -55 -86 -56 -161 -56 -68 0 -81 -3
-135 -36 -32 -19 -74 -50 -93 -67 -55 -53 -172 -216 -236 -330 -33 -59 -64
-107 -68 -107 -4 0 -48 30 -98 66 l-90 66 175 341 c302 594 345 682 352 725
13 80 -25 91 -132 38 -194 -97 -418 -351 -646 -733 -40 -67 -76 -122 -80 -123
-11 0 -339 243 -336 249 2 3 76 151 166 328 169 336 182 372 144 406 -41 37
-198 2 -310 -69 -77 -49 -193 -169 -287 -298 -51 -69 -82 -103 -89 -98 -6 5
-69 50 -139 102 -70 51 -126 95 -125 99 9 19 211 417 339 667 140 274 149 294
149 348 0 68 -23 119 -75 164 -78 69 -178 99 -495 151 -565 91 -1089 93 -1400
5 -189 -54 -313 -141 -372 -262 -32 -65 -33 -70 -32 -187 1 -149 26 -271 99
-491 211 -629 689 -1428 965 -1613 71 -47 118 -58 158 -37 31 16 43 39 400
736 72 140 135 255 141 255 5 0 66 -41 135 -92 l125 -92 -58 -123 c-176 -373
-224 -624 -167 -876 48 -206 77 -261 116 -214 10 12 121 224 245 470 125 246
231 451 235 456 8 8 330 -218 330 -232 0 -3 -39 -84 -86 -180 -198 -402 -325
-744 -369 -993 -24 -137 -14 -476 17 -532 10 -19 11 -19 33 4 13 13 184 341
381 729 196 388 360 709 365 714 4 5 51 -22 103 -60 112 -80 108 -61 47 -238
-259 -747 -151 -1497 303 -2104 309 -414 787 -711 1306 -811 1117 -217 2209
472 2495 1574 19 72 41 182 51 245 23 156 22 436 -1 597 l-18 122 24 48 c35
69 80 90 166 76 35 -6 99 -28 142 -48 l78 -37 62 47 c54 43 60 51 54 74 -4 14
-7 73 -8 131 0 111 10 144 55 185 38 34 119 27 217 -19 l82 -39 56 47 c270
231 681 627 894 861 151 166 241 270 241 278 0 3 -13 8 -29 12 -49 11 -107 59
-132 112 -34 68 -34 191 0 285 34 94 108 190 183 238 87 57 123 65 278 65
l135 0 22 45 c57 115 123 359 123 455 0 124 -59 339 -140 512 -209 444 -603
768 -1086 893 -104 27 -331 35 -424 16z m-150 -1212 l309 -256 -22 -29 c-12
-15 -27 -26 -34 -24 -10 3 -567 459 -612 501 -13 12 -12 17 9 39 13 14 27 25
32 25 4 0 147 -115 318 -256z m-6752 -70 c96 -48 166 -156 144 -222 -26 -80
-164 -56 -252 44 -63 72 -76 139 -35 179 32 33 76 32 143 -1z m6482 -714 l400
-331 -22 -30 c-12 -16 -26 -28 -31 -26 -5 1 -191 153 -413 337 l-403 333 21
29 c11 17 26 27 34 24 7 -3 194 -154 414 -336z m-549 -596 c109 -91 199 -171
199 -178 0 -7 -10 -22 -22 -33 l-23 -21 -180 150 c-99 82 -190 158 -203 168
l-23 19 22 30 c13 17 25 31 27 31 2 0 94 -75 203 -166z m-2256 -351 c14 -79
72 -153 117 -153 36 0 86 62 105 130 l17 62 70 -7 c293 -28 620 -158 866 -345
373 -284 621 -709 681 -1167 14 -102 10 -112 -36 -113 -11 0 -44 -11 -72 -25
-39 -18 -57 -33 -70 -60 -16 -34 -16 -36 3 -62 31 -41 64 -61 124 -77 l55 -14
-2 -69 c-4 -165 -70 -391 -173 -598 -208 -417 -560 -727 -999 -879 -110 -39
-312 -83 -396 -88 l-49 -2 -22 63 c-53 155 -152 155 -208 0 l-23 -63 -49 2
c-144 8 -404 80 -577 161 -222 103 -467 298 -629 501 -197 249 -341 601 -364
896 l-7 81 43 7 c87 14 150 63 150 117 0 38 -57 83 -132 104 l-61 17 7 70 c16
174 76 378 167 565 249 515 737 878 1299 968 47 7 101 13 121 14 35 1 37 -1
44 -36z"/>
<path d="M5658 4773 c-224 -313 -413 -576 -421 -587 -12 -17 -25 -8 -193 135
-98 85 -186 160 -195 166 -13 11 -26 0 -87 -71 -40 -47 -72 -89 -72 -95 0 -5
82 -80 183 -166 100 -86 185 -162 188 -168 3 -7 16 -33 29 -59 17 -36 33 -52
64 -68 91 -44 171 -11 221 91 12 26 214 315 448 642 235 328 427 601 427 606
0 8 -172 141 -183 141 -2 0 -186 -255 -409 -567z"/>
<path d="M10460 7864 c-123 -79 -228 -148 -232 -152 -4 -4 28 -7 70 -8 90 -1
145 -20 275 -94 96 -55 182 -83 228 -73 92 18 141 200 85 311 -36 71 -144 163
-188 162 -7 -1 -114 -66 -238 -146z"/>
</g>
</svg>
